<svg xmlns="http://www.w3.org/2000/svg" viewBox="0 0 64 64">
  <defs>
    <linearGradient id="bg-gradient" x1="0%" y1="0%" x2="100%" y2="100%">
      <stop offset="0%" stop-color="#6366f1"/>
      <stop offset="100%" stop-color="#8b5cf6"/>
    </linearGradient>
  </defs>

  <!-- 背景 -->
  <rect width="64" height="64" rx="14" fill="url(#bg-gradient)"/>

  <!-- 大脑/AI 图标 -->
  <path d="M32 14c-4 0-7 2-8 5 0 0-2 1-2 4s2 4 2 4c0 5 3 9 8 9s8-4 8-9c0 0 2-1 2-4s-2-4-2-4c-1-3-4-5-8-5z" fill="#ffffff" opacity="0.9"/>
  <circle cx="28" cy="24" r="2" fill="#6366f1"/>
  <circle cx="32" cy="22" r="2" fill="#6366f1"/>
  <circle cx="36" cy="24" r="2" fill="#6366f1"/>
  <circle cx="30" cy="28" r="2" fill="#6366f1"/>
  <circle cx="34" cy="28" r="2" fill="#6366f1"/>

  <!-- 书本 -->
  <rect x="18" y="40" width="28" height="4" rx="1" fill="#ffffff" opacity="0.9"/>
  <path d="M20 36v4c0-0.6 0.4-1 1-1h22c0.6 0 1 0.4 1 1v-4h-24z" fill="#ffffff"/>
  <path d="M24 36v4c0-0.6 0.4-1 1-1h6c0.6 0 1 0.4 1 1v-4h-8z" fill="#ffffff" opacity="0.7"/>
  <path d="M32 36v4c0-0.6 0.4-1 1-1h6c0.6 0 1 0.4 1 1v-4h-8z" fill="#ffffff" opacity="0.7"/>

  <!-- 装饰点 -->
  <circle cx="52" cy="16" r="2.5" fill="#ffffff" opacity="0.6"/>
  <circle cx="48" cy="12" r="1.5" fill="#ffffff" opacity="0.4"/>
</svg>
